<?xml version="1.0" encoding="utf-8"?>
<!-- Generator: Adobe Illustrator 25.2.3, SVG Export Plug-In . SVG Version: 6.00 Build 0)  -->
<svg version="1.1" id="Layer_1" xmlns="http://www.w3.org/2000/svg" xmlns:xlink="http://www.w3.org/1999/xlink" x="0px" y="0px"
	 viewBox="0 0 104 26" style="enable-background:new 0 0 104 26;" xml:space="preserve">
<style type="text/css">
	.st0{fill:#F4E041;}
	.st1{fill-opacity:0.87;}
	.st2{fill:#FFFFFF;}
</style>
<g>
	<path class="st0" d="M28.78,22.6c0.14,0.99-0.24,1.94-0.92,2.54c-0.13,0.11-0.26,0.21-0.41,0.29c-0.13,0.08-0.27,0.14-0.42,0.19
		c-0.33,0.12-0.68,0.16-1.02,0.14c-0.01,0-0.02,0-0.03,0c-0.68-0.05-1.34-0.36-1.81-0.85c-0.76-0.8-0.73-1.8-0.73-2.01
		c0-0.1,0-0.2,0.02-0.3h-8.22c0.01,0.1,0.02,0.19,0.02,0.3c0.01,0.21,0.03,1.21-0.73,2.01c-0.47,0.5-1.12,0.81-1.81,0.85
		c-0.01,0-0.02,0-0.03,0c-0.34,0.02-0.68-0.02-1.02-0.14c-0.15-0.05-0.28-0.12-0.42-0.19c-0.15-0.08-0.28-0.18-0.41-0.29
		c0,0,0,0,0,0c-0.68-0.6-1.06-1.54-0.92-2.54H6.99c0.02-0.07,0.04-0.15,0.06-0.22c0.37-1.36,0.74-2.71,1.1-4.07l0.24-0.01l2.83-0.13
		c0.13-0.01,0.23-0.11,0.22-0.24c-0.01-0.13-0.11-0.22-0.24-0.22l-2.68,0.12l-0.24,0.01c0.13-0.49,0.27-0.99,0.4-1.48l0.23,0.02
		l2.27,0.19h0.02c0.12,0,0.22-0.09,0.23-0.21c0.01-0.13-0.08-0.24-0.21-0.25l-2.19-0.18L8.8,15.92c0.14-0.5,0.27-1,0.41-1.5
		l0.22,0.08l2.15,0.82c0.03,0.01,0.06,0.02,0.08,0.02c0.09,0,0.18-0.06,0.21-0.15c0.05-0.12-0.01-0.25-0.13-0.3l-2.2-0.84
		l-0.22-0.08c1.19-4.39,2.39-8.79,3.58-13.18c0.86,2.63,1.72,5.25,2.58,7.88c0.61-0.31,2.02-0.93,3.86-0.9h0.02
		c1.83-0.03,3.25,0.6,3.86,0.9c0.86-2.63,1.72-5.25,2.58-7.88c1.19,4.39,2.39,8.79,3.58,13.18l-0.22,0.08l-2.2,0.84
		c-0.12,0.05-0.18,0.18-0.13,0.3c0.04,0.09,0.12,0.15,0.22,0.15c0.03,0,0.06-0.01,0.08-0.02l2.15-0.82l0.22-0.08
		c0.14,0.5,0.27,1,0.41,1.5l-0.23,0.02l-2.19,0.18c-0.13,0.01-0.22,0.12-0.21,0.25c0.01,0.12,0.11,0.21,0.23,0.21h0.02l2.27-0.19
		l0.23-0.02c0.13,0.49,0.27,0.99,0.4,1.48l-0.24-0.01l-2.68-0.12c-0.13,0-0.23,0.09-0.24,0.22c-0.01,0.13,0.09,0.23,0.22,0.24
		l2.83,0.13l0.24,0.01c0.37,1.36,0.74,2.71,1.1,4.07c0.02,0.07,0.04,0.15,0.06,0.22H28.78z"/>
	<path class="st1" d="M32.04,22.83l-0.06-0.22l-0.06-0.23l-1.1-4.06l-0.24-0.01l-0.24-0.01l1.11,4.07h-2.92l0.04,0.26
		c0.11,0.78-0.13,1.54-0.6,2.09c-0.09,0.1-0.19,0.2-0.29,0.29c-0.03,0.03-0.07,0.05-0.1,0.08c-0.07,0.05-0.14,0.1-0.22,0.14
		c-0.12,0.07-0.25,0.13-0.39,0.18c-0.23,0.08-0.47,0.12-0.7,0.13c-0.08,0-0.16,0-0.23,0c-0.08,0-0.15-0.01-0.23-0.03
		c-0.54-0.09-1.05-0.35-1.44-0.76c-0.64-0.68-0.68-1.52-0.66-1.85c0-0.1,0-0.19,0.01-0.27l0.03-0.25h-8.73l0.03,0.25
		c0.01,0.08,0.02,0.17,0.02,0.28c0.01,0.33-0.02,1.16-0.66,1.85c-0.39,0.41-0.9,0.67-1.44,0.76c-0.08,0.01-0.15,0.02-0.23,0.03
		c-0.08,0-0.16,0.01-0.23,0c-0.24-0.01-0.48-0.05-0.7-0.13c-0.14-0.05-0.27-0.11-0.39-0.18h0c-0.07-0.04-0.15-0.09-0.22-0.14
		c-0.03-0.02-0.07-0.05-0.1-0.08c-0.11-0.09-0.2-0.18-0.29-0.29c-0.47-0.55-0.71-1.31-0.6-2.09l0.04-0.26H7.29l1.11-4.07l-0.24,0.01
		l-0.24,0.01l-1.1,4.06l-0.06,0.23l-0.06,0.22h3.01c-0.08,1.34,0.7,2.58,1.92,3.01c1.06,0.38,2.31,0.06,3.1-0.78
		c0.76-0.81,0.8-1.79,0.79-2.17c0-0.02,0-0.05,0-0.07h7.73v0.06c-0.02,0.38,0.03,1.37,0.79,2.18c0.57,0.6,1.37,0.93,2.17,0.93
		c0.31,0,0.63-0.05,0.93-0.16c1.22-0.43,2-1.67,1.92-3.01H32.04z M8.68,16.37l-0.23-0.02l-0.41,1.51l0.24-0.01l0.24-0.01l0.39-1.45
		L8.68,16.37z M25.83,0l-0.24,0.73c-0.72,2.19-1.44,4.38-2.16,6.57l-0.35,1.06c-0.88-0.41-2.17-0.84-3.72-0.81h-0.01
		c-1.55-0.03-2.85,0.4-3.73,0.81L15.29,7.3c-0.72-2.19-1.44-4.38-2.16-6.57L12.89,0L9.11,13.9l0.22,0.08l0.22,0.08L12.93,1.6
		c0.64,1.95,1.28,3.9,1.92,5.84L15.36,9l0.24-0.12c0.82-0.41,2.15-0.91,3.76-0.88h0.02c1.61-0.03,2.93,0.46,3.75,0.88L23.37,9
		l0.51-1.56c0.64-1.95,1.28-3.89,1.92-5.84l3.39,12.46l0.22-0.08l0.22-0.08L25.83,0z M8.99,14.34L8.57,15.9l0.23,0.02l0.23,0.02
		l0.39-1.44l-0.22-0.08L8.99,14.34z M29.73,14.34l-0.22,0.08l-0.22,0.08l0.39,1.44l0.23-0.02l0.23-0.02L29.73,14.34z M30.28,16.35
		l-0.23,0.02l-0.23,0.02l0.39,1.45l0.24,0.01l0.24,0.01L30.28,16.35z"/>
	<path class="st1" d="M21.19,14.95c-0.27,0-0.49-0.22-0.49-0.48v-2.94c0-0.27,0.22-0.48,0.49-0.48c0.27,0,0.49,0.22,0.49,0.48v2.94
		C21.68,14.73,21.46,14.95,21.19,14.95z"/>
	<path class="st1" d="M17.83,14.44c-0.27,0.03-0.51-0.16-0.54-0.43l-0.24-2.22c-0.03-0.27,0.17-0.51,0.44-0.53
		c0.27-0.03,0.51,0.16,0.54,0.43l0.24,2.22C18.29,14.17,18.09,14.41,17.83,14.44z"/>
	<path class="st1" d="M11.87,15.2c-0.03,0.09-0.12,0.15-0.21,0.15c-0.03,0-0.06-0.01-0.08-0.02l-2.15-0.82l-0.22-0.08l-0.22-0.08
		l-3.13-1.2c-0.12-0.05-0.18-0.18-0.13-0.3c0.05-0.12,0.18-0.18,0.3-0.13l3.09,1.18l0.22,0.08l0.22,0.08l2.2,0.84
		C11.86,14.95,11.92,15.08,11.87,15.2z"/>
	<path class="st1" d="M11.43,16.37c-0.01,0.12-0.11,0.21-0.23,0.21h-0.02l-2.27-0.19l-0.23-0.02l-0.23-0.02l-3.37-0.28
		c-0.13-0.01-0.22-0.12-0.21-0.25c0.01-0.13,0.12-0.22,0.25-0.21l3.45,0.28l0.23,0.02l0.23,0.02l2.19,0.18
		C11.35,16.13,11.44,16.25,11.43,16.37z"/>
	<path class="st1" d="M11.44,17.94c0.01,0.13-0.09,0.23-0.22,0.24L8.39,18.3l-0.24,0.01l-0.24,0.01L5.1,18.45H5.08
		c-0.12,0-0.22-0.1-0.23-0.22C4.85,18.11,4.95,18,5.07,18l2.96-0.13l0.24-0.01l0.24-0.01l2.68-0.12
		C11.33,17.72,11.43,17.82,11.44,17.94z"/>
	<path class="st1" d="M32.86,13.14l-3.13,1.2l-0.22,0.08l-0.22,0.08l-2.15,0.82c-0.03,0.01-0.06,0.02-0.08,0.02
		c-0.09,0-0.18-0.06-0.22-0.15c-0.05-0.12,0.01-0.25,0.13-0.3l2.2-0.84l0.22-0.08l0.22-0.08l3.09-1.18c0.12-0.05,0.25,0.01,0.3,0.13
		C33.04,12.96,32.98,13.1,32.86,13.14z"/>
	<path class="st1" d="M33.86,15.83c0.01,0.13-0.08,0.24-0.21,0.25l-3.37,0.28l-0.23,0.02l-0.23,0.02l-2.27,0.19h-0.02
		c-0.12,0-0.22-0.09-0.23-0.21c-0.01-0.13,0.08-0.24,0.21-0.25l2.19-0.18l0.23-0.02l0.23-0.02l3.46-0.29
		C33.73,15.61,33.85,15.7,33.86,15.83z"/>
	<path class="st1" d="M33.87,18.23c-0.01,0.12-0.11,0.22-0.23,0.22h-0.01l-2.81-0.13l-0.24-0.01l-0.24-0.01l-2.83-0.13
		c-0.13-0.01-0.23-0.11-0.22-0.24c0.01-0.13,0.11-0.22,0.24-0.22l2.68,0.12l0.24,0.01l0.24,0.01L33.65,18
		C33.77,18,33.87,18.11,33.87,18.23z"/>
	<path class="st2" d="M25.92,23.58c0.09,0.25,0.16,0.56,0.19,0.91c0.03,0.41-0.02,0.77-0.09,1.05L25.92,23.58z"/>
	<path class="st1" d="M26.02,25.77c-0.02,0-0.04,0-0.06-0.01c-0.12-0.03-0.2-0.15-0.17-0.28c0.08-0.33,0.11-0.66,0.09-0.98
		c-0.02-0.28-0.08-0.57-0.18-0.85c-0.04-0.12,0.02-0.25,0.14-0.29c0.12-0.04,0.25,0.02,0.29,0.14c0.11,0.32,0.18,0.64,0.2,0.96
		c0.03,0.38-0.01,0.75-0.1,1.12C26.21,25.7,26.12,25.77,26.02,25.77z"/>
	<path class="st2" d="M27.42,23.49c0.14,0.22,0.26,0.5,0.3,0.81c0.05,0.37-0.04,0.69-0.15,0.94L27.42,23.49z"/>
	<path class="st1" d="M27.57,25.47c-0.03,0-0.06-0.01-0.09-0.02c-0.12-0.05-0.17-0.19-0.12-0.3c0.12-0.27,0.17-0.55,0.13-0.82
		c-0.03-0.24-0.12-0.48-0.27-0.72c-0.07-0.11-0.03-0.25,0.07-0.31s0.25-0.03,0.32,0.07c0.18,0.29,0.3,0.6,0.33,0.9
		c0.04,0.36-0.01,0.71-0.17,1.06C27.74,25.42,27.66,25.47,27.57,25.47z"/>
	<path class="st2" d="M12.8,23.58c-0.09,0.25-0.16,0.56-0.19,0.91c-0.03,0.41,0.02,0.77,0.09,1.05L12.8,23.58z"/>
	<path class="st1" d="M12.71,25.77c-0.1,0-0.2-0.07-0.22-0.17c-0.09-0.37-0.13-0.75-0.1-1.12c0.02-0.32,0.09-0.65,0.2-0.96
		c0.04-0.12,0.17-0.18,0.29-0.14c0.12,0.04,0.18,0.17,0.14,0.29c-0.1,0.28-0.16,0.56-0.18,0.85c-0.02,0.33,0.01,0.66,0.09,0.98
		c0.03,0.12-0.04,0.25-0.17,0.28C12.74,25.76,12.73,25.77,12.71,25.77z"/>
	<path class="st2" d="M11.3,23.49c-0.14,0.22-0.26,0.5-0.3,0.81c-0.05,0.37,0.04,0.69,0.15,0.94L11.3,23.49z"/>
	<path class="st1" d="M11.15,25.47c-0.09,0-0.17-0.05-0.21-0.14c-0.16-0.35-0.21-0.71-0.17-1.06c0.04-0.31,0.15-0.61,0.33-0.9
		c0.07-0.11,0.21-0.14,0.32-0.07c0.11,0.07,0.14,0.21,0.07,0.31c-0.15,0.24-0.24,0.48-0.27,0.72c-0.03,0.27,0.01,0.55,0.13,0.82
		c0.05,0.12,0,0.25-0.12,0.3C11.21,25.47,11.18,25.47,11.15,25.47z"/>
	<path class="st1" d="M8.36,22.8H0.24C0.11,22.8,0,22.71,0,22.6c0-0.11,0.11-0.19,0.24-0.19h8.11c0.13,0,0.24,0.09,0.24,0.19
		C8.6,22.71,8.49,22.8,8.36,22.8z"/>
	<path class="st1" d="M37.88,22.84h-7.63c-0.13,0-0.23-0.1-0.23-0.23c0-0.13,0.1-0.23,0.23-0.23h7.63c0.13,0,0.23,0.1,0.23,0.23
		C38.11,22.74,38.01,22.84,37.88,22.84z"/>
	<path class="st1" d="M21.7,18.64c-0.17,0.43-0.55,0.89-1.04,0.96c-0.45,0.06-0.86-0.18-1.16-0.55c-0.03,0.08-0.06,0.16-0.11,0.24
		c-0.07,0.13-0.48,0.79-1.15,0.79h-0.02c-0.64-0.01-1.19-0.59-1.29-1.34c-0.01-0.13,0.07-0.24,0.2-0.25
		c0.12-0.02,0.24,0.07,0.26,0.2c0.07,0.58,0.48,0.94,0.84,0.94h0.01c0.42,0,0.71-0.5,0.75-0.55c0.16-0.28,0.16-0.57,0.13-0.76
		c-0.01-0.04-0.02-0.07-0.03-0.11c-0.44,0.05-0.83-0.1-0.9-0.38c-0.08-0.32,0.28-0.68,0.8-0.81c0.52-0.13,1.01,0.03,1.09,0.35
		c0.07,0.26-0.16,0.56-0.54,0.72c0.01,0.04,0.02,0.09,0.03,0.15c0.19,0.61,0.66,0.97,1.03,0.92c0.29-0.04,0.55-0.37,0.67-0.67
		c0.1-0.26,0.09-0.5,0.06-0.65c-0.02-0.12,0.06-0.24,0.19-0.27c0.13-0.02,0.25,0.06,0.27,0.18C21.82,17.96,21.84,18.29,21.7,18.64z"
		/>
	<path class="st1" d="M43.81,18.59c-0.39,0-0.59-0.11-0.59-0.33V9.34h-2.83c-0.1,0-0.17-0.03-0.22-0.1
		c-0.05-0.07-0.07-0.18-0.07-0.34V8.66c0-0.16,0.02-0.27,0.07-0.34c0.05-0.07,0.12-0.1,0.22-0.1h6.92c0.11,0,0.18,0.03,0.22,0.1
		c0.05,0.07,0.07,0.18,0.07,0.34v0.24c0,0.16-0.02,0.27-0.07,0.34c-0.04,0.07-0.11,0.1-0.22,0.1h-2.79v8.93
		c0,0.22-0.2,0.33-0.59,0.33H43.81z M49.78,18.56c-0.16,0-0.27-0.03-0.34-0.1c-0.07-0.07-0.1-0.18-0.1-0.34V8.66
		c0-0.16,0.03-0.27,0.1-0.34c0.07-0.07,0.18-0.1,0.34-0.1h5.15c0.11,0,0.18,0.03,0.22,0.1c0.05,0.07,0.07,0.18,0.07,0.34v0.24
		c0,0.16-0.02,0.27-0.07,0.34c-0.04,0.07-0.11,0.1-0.22,0.1h-4.29v3.37h3.85c0.11,0,0.18,0.03,0.22,0.1
		c0.05,0.07,0.07,0.18,0.07,0.34v0.24c0,0.16-0.02,0.27-0.07,0.34c-0.04,0.07-0.11,0.1-0.22,0.1h-3.85v3.61h4.31
		c0.11,0,0.18,0.03,0.22,0.1c0.05,0.07,0.07,0.18,0.07,0.34v0.24c0,0.16-0.02,0.27-0.07,0.34c-0.04,0.07-0.11,0.1-0.22,0.1H49.78z
		 M59.55,18.65c-0.59,0-1.14-0.07-1.64-0.21c-0.5-0.14-0.88-0.31-1.14-0.5c-0.19-0.14-0.28-0.26-0.28-0.37
		c0-0.12,0.06-0.28,0.19-0.49c0.14-0.21,0.25-0.31,0.32-0.31c0.04,0,0.14,0.05,0.31,0.15c0.3,0.17,0.63,0.31,0.97,0.43
		c0.35,0.12,0.77,0.18,1.25,0.18c0.57,0,1.03-0.16,1.39-0.47c0.36-0.33,0.55-0.75,0.55-1.27c0-0.36-0.1-0.67-0.3-0.9
		c-0.2-0.25-0.44-0.44-0.72-0.58c-0.28-0.15-0.68-0.33-1.21-0.53c-0.57-0.23-1.02-0.43-1.36-0.62c-0.33-0.19-0.62-0.46-0.86-0.83
		c-0.24-0.37-0.35-0.86-0.35-1.46c0-0.53,0.13-1.01,0.4-1.42c0.28-0.41,0.66-0.73,1.15-0.96c0.5-0.24,1.08-0.35,1.73-0.35
		c0.33,0,0.71,0.05,1.12,0.15c0.41,0.09,0.73,0.21,0.96,0.37c0.2,0.12,0.3,0.25,0.3,0.38c0,0.11-0.06,0.27-0.19,0.47
		c-0.12,0.21-0.21,0.31-0.28,0.31c-0.05,0-0.12-0.02-0.22-0.07c-0.09-0.05-0.15-0.08-0.18-0.1c-0.49-0.26-1-0.38-1.53-0.38
		c-0.57,0-1.03,0.15-1.39,0.44c-0.34,0.3-0.52,0.7-0.52,1.23c0,0.34,0.08,0.61,0.25,0.81c0.18,0.21,0.37,0.36,0.59,0.47
		c0.23,0.1,0.61,0.26,1.17,0.47c0.59,0.23,1.07,0.45,1.45,0.67c0.37,0.21,0.69,0.51,0.94,0.92c0.27,0.39,0.4,0.9,0.4,1.52
		c0,0.89-0.3,1.59-0.89,2.1C61.35,18.39,60.55,18.65,59.55,18.65z M67.34,18.59c-0.39,0-0.59-0.11-0.59-0.33V9.34h-2.83
		c-0.1,0-0.17-0.03-0.22-0.1c-0.05-0.07-0.07-0.18-0.07-0.34V8.66c0-0.16,0.02-0.27,0.07-0.34c0.05-0.07,0.12-0.1,0.22-0.1h6.92
		c0.11,0,0.18,0.03,0.22,0.1c0.05,0.07,0.07,0.18,0.07,0.34v0.24c0,0.16-0.02,0.27-0.07,0.34c-0.04,0.07-0.11,0.1-0.22,0.1h-2.79
		v8.93c0,0.22-0.2,0.33-0.59,0.33H67.34z M75.43,18.59c-0.39,0-0.59-0.11-0.59-0.33V9.34h-2.83c-0.1,0-0.17-0.03-0.22-0.1
		c-0.05-0.07-0.07-0.18-0.07-0.34V8.66c0-0.16,0.02-0.27,0.07-0.34c0.05-0.07,0.12-0.1,0.22-0.1h6.92c0.11,0,0.18,0.03,0.22,0.1
		c0.05,0.07,0.07,0.18,0.07,0.34v0.24c0,0.16-0.02,0.27-0.07,0.34c-0.04,0.07-0.11,0.1-0.22,0.1h-2.79v8.93
		c0,0.22-0.2,0.33-0.59,0.33H75.43z M79.74,18.59c-0.42,0-0.63-0.08-0.63-0.25c0-0.05,0.01-0.12,0.04-0.21l3.5-9.71
		c0.06-0.16,0.26-0.24,0.59-0.24h0.43c0.35,0,0.55,0.08,0.59,0.24l3.5,9.73c0.03,0.07,0.04,0.13,0.04,0.19
		c0,0.17-0.21,0.25-0.63,0.25h-0.12c-0.34,0-0.54-0.08-0.59-0.24l-0.87-2.42h-4.34l-0.84,2.42c-0.05,0.16-0.25,0.24-0.59,0.24H79.74
		z M85.18,14.8l-1.55-4.4c-0.05-0.16-0.11-0.44-0.18-0.86h-0.03c-0.08,0.39-0.15,0.68-0.22,0.86l-1.55,4.4H85.18z M91.58,18.65
		c-0.59,0-1.14-0.07-1.64-0.21c-0.5-0.14-0.88-0.31-1.14-0.5c-0.19-0.14-0.28-0.26-0.28-0.37c0-0.12,0.06-0.28,0.19-0.49
		c0.14-0.21,0.25-0.31,0.32-0.31c0.04,0,0.14,0.05,0.31,0.15c0.3,0.17,0.63,0.31,0.97,0.43c0.35,0.12,0.77,0.18,1.25,0.18
		c0.57,0,1.03-0.16,1.39-0.47c0.36-0.33,0.55-0.75,0.55-1.27c0-0.36-0.1-0.67-0.29-0.9c-0.2-0.25-0.44-0.44-0.72-0.58
		c-0.28-0.15-0.68-0.33-1.21-0.53c-0.57-0.23-1.02-0.43-1.36-0.62c-0.33-0.19-0.62-0.46-0.86-0.83c-0.24-0.37-0.35-0.86-0.35-1.46
		c0-0.53,0.13-1.01,0.4-1.42c0.28-0.41,0.66-0.73,1.15-0.96c0.5-0.24,1.08-0.35,1.73-0.35c0.33,0,0.71,0.05,1.12,0.15
		c0.41,0.09,0.73,0.21,0.96,0.37c0.2,0.12,0.3,0.25,0.3,0.38c0,0.11-0.06,0.27-0.19,0.47c-0.12,0.21-0.21,0.31-0.28,0.31
		c-0.05,0-0.12-0.02-0.22-0.07c-0.09-0.05-0.15-0.08-0.18-0.1c-0.49-0.26-1-0.38-1.53-0.38c-0.57,0-1.03,0.15-1.39,0.44
		c-0.34,0.3-0.52,0.7-0.52,1.23c0,0.34,0.08,0.61,0.25,0.81c0.18,0.21,0.37,0.36,0.59,0.47c0.23,0.1,0.61,0.26,1.17,0.47
		c0.59,0.23,1.07,0.45,1.45,0.67c0.37,0.21,0.69,0.51,0.94,0.92c0.27,0.39,0.4,0.9,0.4,1.52c0,0.89-0.3,1.59-0.89,2.1
		C93.38,18.39,92.58,18.65,91.58,18.65z M97.38,18.59c-0.39,0-0.59-0.11-0.59-0.33V8.51c0-0.22,0.2-0.33,0.59-0.33h0.12
		c0.39,0,0.59,0.11,0.59,0.33v4.52h0.06l3.63-4.64c0.11-0.14,0.37-0.21,0.8-0.21h0.15c0.17,0,0.29,0.02,0.38,0.06
		c0.09,0.03,0.13,0.07,0.13,0.13c0,0.09-0.05,0.19-0.15,0.3l-3.69,4.61l4.47,4.86c0.09,0.1,0.13,0.18,0.13,0.24
		c0,0.08-0.05,0.13-0.15,0.16c-0.1,0.03-0.27,0.04-0.5,0.04h-0.18c-0.22,0-0.39-0.01-0.52-0.03c-0.12-0.02-0.22-0.07-0.3-0.16
		l-4.22-4.76h-0.06v4.63c0,0.22-0.2,0.33-0.59,0.33H97.38z"/>
</g>
</svg>
